<svg width="103" height="57" viewBox="0 0 103 57" fill="none" xmlns="http://www.w3.org/2000/svg">
<g opacity="0.6">
<path d="M43.5127 25.8306C49.2267 25.8552 54.2172 25.8546 58.4843 25.8286C59.4372 25.8224 60.3344 26.119 60.822 26.9686C61.4454 28.0545 61.0589 29.6 59.8432 30.1205C59.2235 30.3863 58.2173 30.3704 57.5009 30.3695C52.8354 30.3617 48.17 30.3635 43.5046 30.375C43.4886 30.375 43.4733 30.3813 43.4621 30.3924C43.4508 30.4036 43.4445 30.4187 43.4445 30.4344L43.4471 34.2657C43.4471 34.2844 43.4545 34.3023 43.4676 34.3155C43.4808 34.3287 43.4986 34.3361 43.5171 34.3361C48.4512 34.3272 53.382 34.3266 58.3096 34.3342C59.027 34.3356 59.5593 34.4016 59.9064 34.5322C60.8255 34.878 61.2701 35.5674 61.24 36.6003C61.1894 38.3321 59.9471 38.8582 58.3883 38.8551C53.4402 38.8456 48.4916 38.8416 43.5426 38.8431C43.481 38.8432 43.4503 38.8736 43.4503 38.9344L43.4529 42.7283C43.4529 42.7762 43.4772 42.8002 43.5257 42.8002C48.4887 42.8014 53.4499 42.7989 58.4091 42.7927C59.1685 42.7913 59.7055 42.8595 60.0199 42.9975C60.8962 43.3826 61.3082 44.2115 61.2458 45.1611C61.1526 46.5829 60.2953 47.2939 58.6739 47.2941C53.6129 47.2939 48.552 47.2969 43.491 47.3031C43.4472 47.3031 43.4253 47.3248 43.4253 47.3681L43.4279 51.1274C43.4279 51.18 43.4545 51.2062 43.5077 51.2062C48.6013 51.2054 53.6893 51.1978 58.7788 51.2386C60.1347 51.2487 61.2141 51.8934 61.2556 53.3404C61.3016 54.9824 60.2763 55.7183 58.7273 55.718C50.5299 55.7135 44.7651 55.7244 41.4328 55.7506C38.9825 55.7702 38.8878 54.2804 38.885 52.2363C38.8711 36.0941 38.8605 19.9515 38.8532 3.80843C38.8521 2.32265 38.9003 1.07457 40.3483 0.59122C40.6607 0.486887 41.1999 0.436297 41.9658 0.439457C47.608 0.464152 53.2478 0.474566 58.8853 0.470701C59.3349 0.470393 59.7609 0.612 60.1632 0.895518C61.6402 1.93662 61.3088 4.30717 59.539 4.85432C59.3133 4.92358 58.9695 4.95883 58.5078 4.96007C53.5102 4.97271 48.5127 4.96784 43.5152 4.94547C43.4564 4.94459 43.427 4.97363 43.4271 5.0326L43.4297 8.87902C43.4297 8.93615 43.4591 8.96469 43.5179 8.96465C48.6339 8.96483 53.7467 8.96362 58.8561 8.96104C61.3554 8.95933 61.9539 12.4584 59.7127 13.2837C59.432 13.3871 58.9735 13.4381 58.3372 13.4367C53.391 13.4235 48.449 13.4084 43.5112 13.3916C43.49 13.3916 43.4697 13.3999 43.4548 13.4147C43.4398 13.4295 43.4314 13.4495 43.4314 13.4704L43.4355 17.3389C43.4355 17.3569 43.4427 17.3741 43.4556 17.3868C43.4685 17.3995 43.4859 17.4066 43.5041 17.4066C48.3468 17.4033 53.1927 17.4 58.0419 17.3966C58.944 17.3969 59.5752 17.4675 59.9354 17.6082C61.6388 18.2773 61.7064 20.931 60.0137 21.6715C59.6724 21.821 59.2549 21.895 58.7614 21.8935C53.7098 21.8767 48.6255 21.8678 43.5086 21.8667C43.49 21.8667 43.4722 21.874 43.4591 21.887C43.446 21.8999 43.4386 21.9175 43.4387 21.9358L43.4427 25.7629C43.4427 25.8081 43.466 25.8306 43.5127 25.8306Z" fill="#757575"/>
<path d="M12.9788 13.3614C13.6563 13.7669 14.0804 14.0349 14.2512 14.1655C15.8721 15.4072 16.6275 17.3315 16.4478 19.3324C16.2119 21.9381 14.2357 24.4981 11.5309 25.0592C9.64525 25.4499 7.38434 25.4183 5.34987 25.4708C4.22746 25.4992 3.29886 25.4911 2.56407 25.4465C2.20327 25.4246 1.88212 25.4442 1.53267 25.4596C0.539494 25.5031 0.148465 24.7177 0.129489 23.8671C-0.0280636 16.9374 -0.0318693 10.0076 0.118066 3.0777C0.140017 2.0766 0.130887 1.14042 1.47496 1.12983C3.87071 1.10978 6.26509 1.15508 8.6581 1.26574C10.2211 1.33739 11.5903 1.55784 12.7658 1.92709C14.9394 2.6091 15.8831 4.62582 16.2948 6.6429C16.7703 8.96923 15.9229 11.1529 14.004 12.6123C13.7212 12.8265 13.3266 13.0436 12.9773 13.2578C12.9207 13.2929 12.9212 13.3274 12.9788 13.3614ZM10.2348 6.23971C9.58933 5.7983 8.83236 5.73529 8.02448 5.71099C7.13218 5.68491 6.27292 5.69378 5.44669 5.73762C5.28815 5.74584 5.13885 5.81315 5.02947 5.92571C4.92008 6.03826 4.85892 6.18751 4.85854 6.34281L4.84894 10.9105C4.84895 10.9357 4.85901 10.9599 4.87699 10.9779C4.89496 10.9959 4.91944 11.0064 4.94521 11.0071C6.38741 11.0448 7.83383 11.041 9.28446 10.9959C9.74191 10.9817 10.0956 10.9088 10.3454 10.777C12.044 9.88104 11.6559 7.21359 10.2348 6.23971ZM4.85938 19.9465C4.92053 20.398 5.15265 20.5359 5.58984 20.5494C6.36424 20.5738 7.4607 20.544 8.87924 20.4602C10.2501 20.3792 11.3334 19.6645 11.4499 18.303C11.5678 16.9456 10.8157 15.7434 9.33577 15.6726C8.20199 15.6172 6.73293 15.6136 4.9286 15.6618C4.8805 15.6628 4.85646 15.6863 4.85649 15.7323L4.84651 19.7422C4.84655 19.8103 4.85084 19.8784 4.85938 19.9465Z" fill="#757575"/>
<path d="M25.2917 20.321C28.1416 20.3355 30.9914 20.3303 33.8413 20.3055C34.8255 20.2979 34.9166 20.9422 34.9144 21.7995C34.9123 22.6202 34.9106 23.4409 34.9094 24.2615C34.9072 25.0295 34.675 25.4638 33.8854 25.4657C29.8864 25.4712 25.8878 25.4731 21.8896 25.4712C21.0028 25.4718 20.4348 25.2098 20.4314 24.2467C20.4225 21.7802 20.4397 19.3149 20.4831 16.8511C20.5625 12.2953 20.5444 7.65982 20.5899 5.00134C20.6029 4.25119 20.5957 3.60823 20.5683 3.07243C20.5372 2.45787 20.5618 2.04981 20.6418 1.84825C20.9401 1.09654 21.658 1.15513 22.4948 1.12707C23.1176 1.10467 23.7418 1.10607 24.3673 1.13128C25.3583 1.17045 25.2751 2.11161 25.2621 2.90297C25.1706 8.68248 25.1542 14.4624 25.2132 20.2427C25.2141 20.2949 25.2403 20.321 25.2917 20.321Z" fill="#757575"/>
<path d="M76.7077 15.3523C76.7113 15.3542 76.7153 15.3551 76.7194 15.3549C76.7234 15.3547 76.7274 15.3534 76.7309 15.3512C76.7344 15.349 76.7373 15.3458 76.7394 15.3421C76.7415 15.3384 76.7426 15.3342 76.7428 15.33C76.7376 11.9771 76.7601 8.62042 76.8102 5.26003C76.8308 3.85932 76.8227 2.91809 76.7858 2.43634C76.7179 1.54351 77.1148 1.24608 77.9736 1.16318C79.0728 1.05547 80.0412 1.06271 80.8786 1.18491C81.5088 1.27655 81.6186 1.83871 81.6246 2.42605C81.6762 6.72016 81.6479 11.7444 81.5395 17.4989C81.5179 18.6447 81.5051 21.1908 81.5013 25.1371C81.4994 26.482 79.9567 25.9362 79.0993 26.061C77.9375 26.2301 77.0432 25.7792 76.4166 24.7081C73.9372 20.4641 71.4288 16.2358 68.8915 12.0234C68.8653 11.9806 68.8325 11.9634 68.7932 11.9718C68.7749 11.9757 68.7585 11.9857 68.7467 12.0002C68.735 12.0147 68.7286 12.0328 68.7287 12.0514C68.7382 16.352 68.7426 20.6476 68.7418 24.938C68.7427 26.2717 67.9468 26.0672 66.8424 26.0735C66.1819 26.0768 65.5218 26.061 64.8622 26.0261C64.03 25.9834 63.8598 25.4729 63.886 24.7125C63.9539 22.738 63.9881 21.4651 63.9886 20.8941C64.0022 14.7323 64.0124 8.57103 64.0194 2.41022C64.0199 1.67825 64.3737 1.27016 65.0809 1.18597C66.1278 1.06109 67.698 0.889811 68.4831 1.74308C68.6001 1.87042 68.8525 2.27157 69.2403 2.94654C71.5661 7.00193 73.9387 11.0303 76.358 15.0317C76.4433 15.1721 76.5598 15.279 76.7077 15.3523Z" fill="#757575"/>
<path d="M95.7298 1.31928C98.0609 1.46916 99.7675 2.47084 100.85 4.32432C101.221 4.96283 101.501 5.76199 101.687 6.72182C101.954 8.10592 102.082 9.60691 102.069 11.2248C102.048 14.0846 101.952 16.5777 101.782 18.7039C101.712 19.5882 101.583 20.2946 101.394 20.823C100.437 23.4942 97.9083 25.3437 95.0492 25.3758C92.4908 25.4049 89.9319 25.4231 87.3726 25.4303C86.9527 25.432 86.6497 25.4035 86.3383 25.0957C85.7875 24.5513 85.6173 24.0299 85.6167 23.2087C85.614 16.5994 85.6099 9.99051 85.6045 3.38211C85.6038 2.3925 85.6305 1.68209 86.4795 1.24487C86.7041 1.12792 87.028 1.06883 87.4511 1.06763C90.2133 1.05752 92.9729 1.14141 95.7298 1.31928ZM94.4106 5.7372C93.3968 5.67675 92.3232 5.62867 91.1898 5.59294C91.1258 5.59078 91.0621 5.60162 91.0023 5.62482C90.9426 5.64802 90.8881 5.68309 90.8421 5.72795C90.7961 5.77282 90.7595 5.82656 90.7346 5.88597C90.7096 5.94537 90.6968 6.00922 90.6969 6.07372C90.6982 10.5989 90.7018 15.1728 90.7077 19.7956C90.7077 19.802 90.7032 19.8868 90.6942 20.0502C90.6727 20.4207 90.8554 20.5953 91.2422 20.5741C92.1663 20.5241 93.0908 20.4733 94.0157 20.4216C95.1857 20.3564 96.0091 20.2012 96.6064 19.2331C96.7819 18.9464 96.9098 18.5193 96.9901 17.9517C97.1253 16.987 97.195 16.2734 97.1992 15.8108C97.2203 13.4866 97.1539 11.1634 97.0001 8.84115C96.9461 8.02631 96.8325 7.44239 96.6592 7.08936C96.2482 6.25379 95.4987 5.80306 94.4106 5.7372Z" fill="#757575"/>
<path d="M87.141 55.7195C85.9461 55.7341 85.6474 54.7314 85.6453 53.6969C85.6336 46.9811 85.6295 40.2652 85.6329 33.5493C85.6333 32.9358 85.6985 32.4955 85.8284 32.2286C86.2649 31.3327 86.9626 31.4244 87.9583 31.4072C90.1886 31.3681 91.6677 31.3501 92.3957 31.3533C96.38 31.3753 99.8784 32.2739 101.062 36.6367C101.157 36.9888 101.246 37.5541 101.329 38.3327C101.384 38.8544 101.416 39.4258 101.425 40.0466C101.46 42.7043 101.407 45.3603 101.269 48.0145C101.203 49.2562 101.09 50.1633 100.93 50.7357C100.22 53.2591 98.039 55.2058 95.4717 55.5762C95.1866 55.6177 94.3927 55.6444 93.09 55.6562C91.1074 55.6741 89.1244 55.6952 87.141 55.7195ZM94.4854 36.1941C93.2244 36.0381 91.972 35.9532 90.7281 35.9394C90.7037 35.9394 90.6802 35.9495 90.6629 35.9673C90.6457 35.9851 90.636 36.0092 90.636 36.0344L90.646 50.6643C90.646 50.6863 90.6503 50.7081 90.6588 50.7282C90.6672 50.7484 90.6796 50.7666 90.6951 50.7817C90.7107 50.7967 90.7291 50.8084 90.7491 50.8159C90.7692 50.8233 90.7905 50.8265 90.8119 50.8252C91.9443 50.7666 92.9881 50.7205 93.9433 50.6868C95.4839 50.6335 96.341 49.8282 96.5145 48.2708C96.7297 46.3512 96.8159 44.6018 96.7729 43.0226C96.761 42.5796 96.7195 41.7456 96.6482 40.5204C96.5824 39.3759 96.4994 38.5446 96.3993 38.0265C96.1891 36.9362 95.5511 36.3254 94.4854 36.1941Z" fill="#757575"/>
<path d="M68.8777 42.1718C68.8324 42.1277 68.8098 42.1371 68.8099 42.2C68.81 46.5119 68.8026 50.8284 68.7876 55.1497C68.7853 55.8474 68.6569 56.3412 67.8706 56.36C66.3376 56.3967 65.2995 56.3726 64.7564 56.2876C64.184 56.198 63.9009 55.8254 63.9071 55.1699C63.9692 48.1375 64.0021 41.1047 64.0057 34.0714C64.0056 33.82 64.0143 33.5382 64.032 33.226C64.0823 32.2975 64.0465 31.6083 65.2032 31.4795C66.3459 31.3521 67.9749 31.133 68.6446 32.2198C71.3394 36.5983 73.9437 41.0027 76.4575 45.4329C76.476 45.4646 76.5044 45.4894 76.5384 45.5035C76.5724 45.5176 76.6101 45.5202 76.6458 45.5109C76.6814 45.5016 76.713 45.4809 76.7357 45.452C76.7584 45.4232 76.771 45.3877 76.7714 45.3511C76.7694 41.0692 76.7665 36.755 76.7625 32.4084C76.762 31.6713 77.7137 31.4456 78.285 31.4325C79.5541 31.4026 80.3559 31.4058 80.6907 31.4421C81.5096 31.5302 81.6444 32.1969 81.652 32.9424C81.7009 38.238 81.6658 43.5331 81.5469 48.8279C81.503 50.7775 81.5156 52.692 81.5113 54.6233C81.5098 55.2554 81.4893 55.6338 81.4498 55.7585C81.1521 56.704 79.9185 56.2069 79.1591 56.3354C77.9751 56.535 77.0909 56.1277 76.5066 55.1134C74.0579 50.8567 71.573 46.6197 69.0518 42.4024C68.9961 42.3096 68.9381 42.2327 68.8777 42.1718Z" fill="#757575"/>
<path d="M4.81995 45.5269C4.77834 48.4065 4.79826 51.0969 4.87974 53.5979C4.90816 54.4751 4.87685 55.4765 3.78216 55.6375C3.06163 55.743 2.33828 55.7891 1.61211 55.7758C0.799694 55.7611 0.035967 55.7506 0.0394755 54.7809C0.0418921 54.2477 0.151266 53.4838 0.150824 52.8387C0.150875 46.1512 0.173183 39.4642 0.217751 32.7777C0.223627 31.8798 0.658272 31.4269 1.52168 31.419C5.15942 31.3861 9.17984 31.538 13.2586 31.5076C14.0473 31.5029 14.5288 31.6532 14.5099 32.5276C14.4811 33.8794 14.4507 34.8003 14.4186 35.2903C14.3727 35.9837 14.0168 36.327 13.3509 36.3201C10.8793 36.2932 8.15877 36.2817 5.18921 36.2856C5.0872 36.2857 5.03623 36.3364 5.0363 36.4377L5.03911 40.5429C5.03913 40.5695 5.0498 40.5949 5.06882 40.6137C5.08784 40.6326 5.11367 40.6434 5.14073 40.6437C7.92576 40.6694 10.7099 40.6942 13.493 40.7181C14.1385 40.7246 14.3363 41.1651 14.3242 41.7591C14.3054 42.6606 14.2731 43.5603 14.2273 44.4582C14.1793 45.3796 13.5575 45.4325 12.7924 45.433C10.1594 45.4339 7.52561 45.4417 4.89085 45.4564C4.84355 45.4574 4.81992 45.4809 4.81995 45.5269Z" fill="#757575"/>
<path d="M28.9177 46.1837C29.6307 47.5708 30.2743 49.0043 30.9723 50.4026C31.2995 51.0574 31.6224 51.4432 32.238 51.7203C33.111 52.1127 34.3728 51.7146 34.7616 52.8243C34.8762 53.1529 34.935 53.5797 34.9381 54.1047C34.9488 55.8725 33.7782 56.2396 32.3066 56.3899C30.5177 56.5728 29.1939 55.8173 28.0805 54.3446C27.5754 53.6773 27.1783 52.999 26.8892 52.3099C26.1682 50.5928 25.4287 48.8842 24.6706 47.184C24.3419 46.4503 24.0149 46.0138 23.1955 46.3482C23.1565 46.3642 23.137 46.3943 23.137 46.4384C23.1421 48.5843 23.1432 50.7297 23.1401 52.8746C23.1392 53.5014 23.1996 54.2127 23.2027 54.8875C23.206 55.7101 22.9326 56.0822 22.1281 56.1814C21.078 56.3098 20.1572 56.3442 19.3657 56.2847C18.6985 56.2344 18.4747 55.4176 18.477 54.7541C18.4882 49.9064 18.4966 45.0588 18.5024 40.2112C18.5048 37.7221 18.5793 35.209 18.6184 32.7086C18.6271 32.1292 18.841 31.7412 19.2602 31.5446C19.4617 31.4506 19.8424 31.4033 20.4024 31.403C22.4809 31.4015 24.5568 31.4522 26.6299 31.5551C29.4156 31.694 32.2776 32.0893 33.5744 34.955C34.278 36.5125 34.4702 38.9451 34.1201 40.6512C33.515 43.5999 31.456 45.0325 28.9557 46.0781C28.9049 46.0988 28.8922 46.134 28.9177 46.1837ZM29.0841 40.6857C29.911 39.3919 29.5448 37.4497 28.2453 36.5673C27.2019 35.8581 25.0469 36.0638 23.842 36.1111C23.3274 36.1312 23.1874 36.4891 23.1796 36.985C23.1552 38.45 23.153 39.9248 23.1731 41.4095C23.174 41.4574 23.1976 41.4823 23.2439 41.4841C24.6472 41.532 26.0518 41.5456 27.4577 41.5249C28.1911 41.5141 28.7332 41.2343 29.0841 40.6857Z" fill="#757575"/>
</g>
</svg>
