<svg width="99" height="78" viewBox="0 0 99 78" fill="none" xmlns="http://www.w3.org/2000/svg">
<path d="M11.8089 32.8612C12.4646 32.3549 13.4066 32.4759 13.9129 33.1316L22.1643 43.8164C22.6707 44.4721 22.5496 45.4141 21.8939 45.9204C21.2383 46.4268 20.2963 46.3057 19.7899 45.6501L12.4554 36.1525L2.95776 43.487C2.30209 43.9934 1.36009 43.8723 0.853744 43.2166C0.3474 42.561 0.468454 41.619 1.12412 41.1126L11.8089 32.8612ZM14.2135 34.2396C11.7091 53.7278 25.4772 71.5562 44.9654 74.0606L44.583 77.0361C23.4515 74.3206 8.52244 54.9887 11.238 33.8572L14.2135 34.2396Z" fill="#515151"/>
<path d="M87.1909 44.6871C86.5352 45.1934 85.5932 45.0724 85.0869 44.4167L76.8355 33.7319C76.3292 33.0763 76.4502 32.1343 77.1059 31.6279C77.7616 31.1216 78.7036 31.2426 79.2099 31.8983L86.5445 41.3959L96.0421 34.0613C96.6977 33.555 97.6397 33.676 98.1461 34.3317C98.6524 34.9874 98.5314 35.9294 97.8757 36.4357L87.1909 44.6871ZM84.7863 43.3087C87.2907 23.8206 73.5226 5.99213 54.0345 3.48777L54.4168 0.512236C75.5483 3.22778 90.4774 22.5596 87.7618 43.6911L84.7863 43.3087Z" fill="#515151"/>
<path d="M43.5476 19.2734H53.6667L48.9048 32.8449H62L47.7143 59.2734L50.0952 39.9877H37L43.5476 19.2734Z" stroke="#FFAB3E" stroke-width="3"/>
</svg>
