<svg width="87" height="15" viewBox="0 0 87 15" fill="none" xmlns="http://www.w3.org/2000/svg">
<path d="M7.5854 0.50293L9.71035 5.07522L14.7139 5.68235L11.0209 9.11367L11.9902 14.0607L7.5854 11.6092L3.18059 14.0607L4.1499 9.11367L0.458984 5.68235L5.46255 5.07522L7.5854 0.50293Z" fill="#ECBD01"/>
<path d="M25.5777 0.502441L27.7006 5.07473L32.7042 5.68186L29.0132 9.11318L29.9825 14.0602L25.5777 11.6087L21.1729 14.0602L22.1422 9.11318L18.4492 5.68186L23.4549 5.07473L25.5777 0.502441Z" fill="#ECBD01"/>
<path d="M43.5668 0.50238L45.6897 5.07467L50.6932 5.6818L47.0023 9.11312L47.9716 14.0602L43.5668 11.6086L39.162 14.0602L40.1313 9.11312L36.4404 5.6818L41.444 5.07467L43.5668 0.50238Z" fill="#ECBD01"/>
<path d="M61.5573 0.50238L63.6801 5.07467L68.6858 5.6818L64.9928 9.11312L65.9621 14.0602L61.5573 11.6086L57.1525 14.0602L58.1218 9.11312L54.4309 5.6818L59.4344 5.07467L61.5573 0.50238Z" fill="#ECBD01"/>
<path d="M79.5484 0.502441L81.6713 5.07473L86.6748 5.68186L82.9839 9.11318L83.9532 14.0602L79.5484 11.6087L75.1436 14.0602L76.1129 9.11318L72.4199 5.68186L77.4256 5.07473L79.5484 0.502441Z" fill="#ECBD01"/>
</svg>
