<svg width="107" height="72" viewBox="0 0 107 72" fill="none" xmlns="http://www.w3.org/2000/svg">
<path d="M94.0752 49.451C72.4676 71.0047 37.8757 72.3955 14.8458 52.1674C14.0595 51.4769 12.975 50.4434 11.5925 49.0668C6.28548 43.7868 2.60221 40.1058 0.542627 38.0238C-0.434737 37.0352 0.0438344 36.1499 0.908858 35.2804C4.44984 31.7274 7.9983 28.182 11.5543 24.644C12.9218 23.2824 14.0055 22.2496 14.8054 21.5456C36.8377 2.15563 70.0163 2.44772 91.7498 21.9927C92.4822 22.6518 93.5592 23.6913 94.9807 25.1113C98.2955 28.4231 101.609 31.7357 104.921 35.049C105.869 35.9971 106.588 36.9678 105.464 38.0867C101.669 41.8763 97.8723 45.6644 94.0752 49.451ZM91.77 26.5538C70.4343 5.18658 36.04 5.09671 14.6189 26.2797C11.0884 29.7697 7.5744 33.2643 4.07686 36.7633C4.06939 36.7706 4.06346 36.7794 4.0594 36.789C4.05535 36.7986 4.05326 36.809 4.05326 36.8195C4.05326 36.8299 4.05535 36.8403 4.0594 36.8499C4.06346 36.8596 4.06939 36.8683 4.07686 36.8756C7.32725 40.1425 10.5806 43.4011 13.837 46.6515C15.2076 48.0206 16.2928 49.0534 17.0927 49.7499C38.7317 68.6366 71.4655 67.4345 91.761 47.1368C95.1702 43.7277 98.5793 40.3155 101.988 36.9004C102.014 36.8749 102.014 36.8487 101.988 36.8217C98.5913 33.3976 95.1852 29.9749 91.77 26.5538Z" fill="#515151"/>
<path d="M72.1787 36.824C72.1787 41.9033 70.1609 46.7747 66.5692 50.3664C62.9776 53.958 58.1062 55.9758 53.0268 55.9758C47.9475 55.9758 43.0761 53.958 39.4844 50.3664C35.8928 46.7747 33.875 41.9033 33.875 36.824C33.875 31.7446 35.8928 26.8732 39.4844 23.2816C43.0761 19.6899 47.9475 17.6721 53.0268 17.6721C58.1062 17.6721 62.9776 19.6899 66.5692 23.2816C70.1609 26.8732 72.1787 31.7446 72.1787 36.824ZM68.8714 36.8532C68.8714 32.6503 67.2018 28.6197 64.23 25.6478C61.2581 22.676 57.2274 21.0064 53.0246 21.0064C48.8218 21.0064 44.7911 22.676 41.8192 25.6478C38.8474 28.6197 37.1778 32.6503 37.1778 36.8532C37.1778 38.9342 37.5877 40.9948 38.3841 42.9175C39.1805 44.8401 40.3477 46.587 41.8192 48.0585C44.7911 51.0304 48.8218 52.6999 53.0246 52.6999C55.1056 52.6999 57.1663 52.2901 59.0889 51.4937C61.0115 50.6973 62.7584 49.53 64.23 48.0585C65.7015 46.587 66.8687 44.8401 67.6651 42.9175C68.4615 40.9948 68.8714 38.9342 68.8714 36.8532Z" fill="#515151"/>
<path d="M54.6943 44.7282C54.6966 45.072 54.7055 45.4045 54.591 45.7168C54.227 46.6987 53.1687 47.1503 52.243 46.6403C51.6274 46.3017 51.3271 45.6704 51.3421 44.7462C51.3451 44.5934 51.2709 44.5013 51.1196 44.4698C49.1754 44.0774 47.8513 42.9735 47.1473 41.158C46.9436 40.6353 46.8829 40.1904 46.9653 39.8234C47.2753 38.4282 49.2031 38.3877 49.7648 39.7897C50.0726 40.5604 50.3332 41.0772 51.1264 41.4524C52.4026 42.0545 55.1954 42.3511 56.0424 40.8075C56.7636 39.4932 55.6627 38.7315 54.5101 38.4439C52.8969 38.041 51.5315 37.6627 50.4141 37.3092C45.7003 35.8174 46.6575 29.9577 51.2387 29.1488C51.3121 29.1368 51.3525 29.0934 51.36 29.0185C51.3765 28.8762 51.3795 28.7422 51.369 28.6163C51.1915 26.2033 55.0044 26.1021 54.6831 28.9623C54.6651 29.1151 54.7318 29.2065 54.883 29.2365C56.4873 29.5555 57.6279 30.437 58.3049 31.881C58.5416 32.3887 58.6307 32.8299 58.5723 33.2043C58.4083 34.2626 56.8333 34.7074 56.1076 33.9211C56.0596 33.8686 55.8971 33.5526 55.62 32.9729C55.2665 32.227 54.6164 31.8061 53.6698 31.7102C52.6542 31.6068 51.2792 31.5889 50.5939 32.3573C49.8884 33.1504 50.1805 34.121 51.2028 34.4468C52.9373 34.9973 54.4988 35.2354 56.1907 35.8915C61.0281 37.7698 59.6373 43.807 54.8201 44.5799C54.7363 44.5934 54.6943 44.6429 54.6943 44.7282Z" fill="#FFAB3E"/>
<path d="M88.2488 0.0333106L89.9272 4.49415L94.406 6.12381L89.9452 7.80213L88.3155 12.281L86.6372 7.82014L82.1583 6.19048L86.6192 4.51216L88.2488 0.0333106Z" fill="#FFAB3E"/>
<path d="M20.3171 63.3075L22.1506 65.3818L24.9188 65.3402L22.8445 67.1737L22.8861 69.9418L21.0526 67.8675L18.2845 67.9092L20.3588 66.0757L20.3171 63.3075Z" fill="#515151"/>
</svg>
