<svg width="119" height="55" viewBox="0 0 119 55" fill="none" xmlns="http://www.w3.org/2000/svg">
<g opacity="0.5">
<g opacity="0.6">
<path d="M52.4541 17.4239L52.4524 14.8486L62.6595 14.8416L62.6613 17.4169L59.1649 17.4193L59.1722 28.04L55.9578 28.0422L55.9505 17.4215L52.4541 17.4239ZM72.4964 28.0309L72.4927 22.5983L67.4925 22.6018L67.4962 28.0343L64.2818 28.0365L64.2728 14.8405L67.4872 14.8383L67.4907 20.0077L72.4909 20.0042L72.4874 14.8349L75.7018 14.8327L75.7108 28.0287L72.4964 28.0309ZM86.1053 14.8255L86.107 17.4008L81.2384 17.4042L81.2403 20.0734L85.5449 20.0705L85.5466 22.5518L81.242 22.5547L81.244 25.4496L86.1126 25.4462L86.1143 28.0215L78.0313 28.0271L78.0223 14.8311L86.1053 14.8255ZM59.3432 30.6935C62.5012 30.6913 64.7957 32.3064 65.493 35.0128L61.9403 35.0152C61.4509 34.1321 60.5483 33.6627 59.3452 33.6636C57.2775 33.665 55.9063 35.1321 55.9078 37.4255C55.9095 39.8692 57.3015 41.2968 59.6136 41.2952C61.2115 41.2941 62.3199 40.4475 62.8077 38.9621L58.7286 38.9649L58.7269 36.5964L65.7197 36.5916L65.7217 39.5805C65.0466 41.8554 62.8488 44.1315 59.3712 44.1339C55.4237 44.1366 52.6398 41.3752 52.637 37.4277C52.6343 33.4802 55.3957 30.6962 59.3432 30.6935ZM67.5053 44.0343L67.4962 30.8383L70.7106 30.8361L70.7197 44.0321L67.5053 44.0343ZM73.0491 44.0305L73.0401 30.8345L81.6306 30.8286L81.6324 33.4039L76.2563 33.4076L76.2582 36.1896L80.2809 36.1869L80.2826 38.687L76.2599 38.6897L76.2635 44.0283L73.0491 44.0305ZM82.6075 33.4032L82.6058 30.8279L92.8129 30.8209L92.8147 33.3962L89.3183 33.3986L89.3256 44.0193L86.1112 44.0215L86.1039 33.4008L82.6075 33.4032ZM102.509 30.8143L102.511 33.3896L97.6423 33.3929L97.6442 36.0622L101.949 36.0592L101.951 38.5405L97.6459 38.5435L97.6478 41.4383L102.516 41.435L102.518 44.0103L94.4352 44.0158L94.4262 30.8198L102.509 30.8143ZM109.54 30.8095C113.75 30.8066 116.459 33.474 116.462 37.4027C116.465 41.3127 113.76 44.0026 109.549 44.0055L104.605 44.0089L104.596 30.8129L109.54 30.8095ZM107.818 41.2246L109.34 41.2235C111.765 41.2219 113.193 39.8299 113.191 37.405C113.189 34.9801 111.76 33.5524 109.335 33.5541L107.812 33.5551L107.818 41.2246Z" fill="#1A1A1A"/>
<path d="M15.6267 40.4583L13.4841 36.9873L8.9656 37.8023L14.9016 27.2577L3.3125 27.2656L3.33151 54.9864L23.0784 54.9728L23.0594 27.2521L15.6267 40.4583Z" fill="black"/>
<path d="M48.1091 14.0073L34.996 14.0163C35.7626 13.6206 36.4471 13.2074 37.0532 12.7687C39.384 11.0965 40.6209 8.97889 40.6155 6.87783C40.6143 5.15433 39.7968 2.68604 38.6106 1.65784C37.4224 0.617908 35.8472 0.00862325 34.1667 0.00977551C32.3709 0.0110069 30.7026 0.628385 29.2732 1.58795C27.1242 3.02926 25.4439 6.14875 24.2463 8.52843C24.1858 8.64781 24.1252 8.76327 24.0666 8.87873C23.6277 7.96153 23.1139 6.12492 22.5323 5.28802C21.5141 3.83715 20.2905 2.55465 18.8539 1.5951C17.4271 0.637488 15.7599 0.0223968 13.966 0.0236268C12.178 0.0307218 10.541 0.781106 9.3172 1.93812C8.09921 3.08339 7.24803 5.66042 7.24147 7.5013C7.23438 8.57531 7.54816 9.69997 8.1964 10.7227C9.01109 12.0035 10.3011 13.1196 12.0819 14.032L0.00960445 14.0403L0.0445515 25.064L22.7141 25.0485L22.7066 14.0247L25.4689 14.0228L25.4764 25.0466L48.1499 25.031L48.1091 14.0073ZM12.8621 10.5845C11.952 10.01 11.3921 9.43323 11.0631 8.91504C10.7439 8.40075 10.6317 7.49702 10.6314 7.05294C10.6231 6.31151 10.9919 5.01032 11.6488 4.3995C12.2901 3.78674 13.1623 3.40857 13.9449 3.40804L13.9683 3.40802C14.9758 3.41516 15.9738 3.75095 16.9798 4.41345C18.477 5.40035 19.8893 8.08539 20.8708 10.0527C21.384 11.054 21.776 12.1004 22.0408 13.1233C17.4999 12.6569 14.5648 11.6573 12.8621 10.5845ZM28.3797 8.17738C29.1967 7.00499 30.1598 5.07151 31.159 4.40373C32.1524 3.73986 33.1616 3.40269 34.1691 3.39417L34.1788 3.39416C35.0181 3.39359 35.8263 3.72169 36.3763 4.20843C36.9283 4.703 37.2244 5.60856 37.2248 6.24631C37.2136 6.9995 36.8255 8.73304 35.0676 10.0195C33.3997 11.2375 30.5033 12.4856 26.0494 13.3612C26.4688 11.5944 27.2911 9.7236 28.3797 8.17738Z" fill="black"/>
<path d="M39.2408 37.7379L34.7232 36.9741L32.5933 40.4891L25.2384 27.43L25.2573 54.9727L44.9044 54.9592L44.8854 27.2385L33.2963 27.2464L39.2408 37.7379Z" fill="black"/>
</g>
</g>
</svg>
