<svg width="124" height="49" viewBox="0 0 124 49" fill="none" xmlns="http://www.w3.org/2000/svg">
<path d="M66.2363 12.9263L63.9764 23.5024C63.7052 24.7679 63.2533 25.8527 62.6205 26.5758C61.6262 27.8413 60.0895 28.4741 58.1008 28.4741C56.1121 28.4741 54.937 27.9317 54.485 26.9374C54.033 25.943 54.033 24.4967 54.3946 22.6889L54.485 22.3273H57.468L57.3776 22.6889C57.1968 23.864 57.1064 24.6775 57.1968 25.1295C57.2872 25.5815 57.7392 25.8527 58.5528 25.8527C59.2759 25.8527 59.8183 25.5815 60.1799 25.0391C60.3606 24.7679 60.5414 24.2256 60.7222 23.5024L62.9821 12.9263H66.2363Z" fill="#FFAD40"/>
<path d="M77.3538 12.9263L79.5233 28.1125H76.0883L75.7267 24.9487H70.1223L68.4048 28.1125H65.1506L73.8284 12.9263H77.3538ZM74.7324 16.3613L71.5686 22.3273H75.4555L74.7324 16.3613Z" fill="#FFAD40"/>
<path d="M95.9771 15.096C96.429 15.9999 96.6098 16.9943 96.429 17.8982H93.2652C93.1749 17.1751 93.0845 16.6327 92.8133 16.2711C92.3613 15.6383 91.6382 15.2768 90.463 15.2768C89.2879 15.2768 88.2936 15.7287 87.48 16.6327C86.5761 17.5366 86.0337 18.8925 85.6721 20.61C85.3105 22.3275 85.4009 23.593 85.9433 24.4066C86.4857 25.2201 87.2992 25.6721 88.384 25.6721C89.4687 25.6721 90.463 25.3105 91.1862 24.5874C91.5478 24.2258 91.9997 23.593 92.3613 22.8699H95.5251C94.8923 24.497 93.898 25.8529 92.5421 26.9376C91.1862 27.932 89.6495 28.4743 87.8416 28.4743C85.6721 28.4743 84.045 27.7512 83.1411 26.3953C82.2371 24.949 81.966 23.0507 82.5083 20.61C83.0507 17.9886 84.2258 15.9095 85.9433 14.4632C87.48 13.1977 89.1975 12.5649 91.0958 12.5649C93.446 12.5649 95.1635 13.4689 95.9771 15.096Z" fill="#FFAD40"/>
<path d="M100.857 22.9601L99.772 28.0222H96.6082L99.8624 12.8359H103.026L101.67 19.0731L108.902 12.8359H112.97L105.376 19.0731L109.987 28.0222H105.919L102.665 21.4234L100.857 22.9601Z" fill="#FFAD40"/>
<path d="M116.677 16.5425C116.406 16.904 116.134 17.5368 115.954 18.3504H113.061C113.332 17.0848 113.784 16.0905 114.417 15.2769C115.502 13.8306 117.038 13.0171 119.027 13.0171C120.564 13.0171 121.739 13.4691 122.552 14.373C123.276 15.2769 123.547 16.3617 123.185 17.808C122.914 18.8927 122.372 19.8871 121.558 20.791C121.016 21.3334 120.112 21.9661 119.027 22.6893L117.671 23.5028C116.858 24.0452 116.225 24.4068 115.954 24.678C115.592 24.9491 115.321 25.2203 115.14 25.4915H121.649L121.106 28.1129H110.892C111.163 27.0282 111.615 26.0339 112.157 25.2203C112.79 24.226 113.965 23.1413 115.773 22.0565C117.31 21.0622 118.394 20.4294 118.846 19.9775C119.569 19.3447 120.021 18.6215 120.202 17.808C120.383 17.1752 120.293 16.6329 120.021 16.2713C119.75 15.8193 119.298 15.6385 118.666 15.6385C117.852 15.5481 117.219 15.9097 116.677 16.5425Z" fill="#FFAD40"/>
<path d="M25.7401 20.7002C25.9209 19.6155 26.0113 18.5308 26.1017 17.3556L21.6723 19.0731C21.4916 20.2483 21.4012 21.333 21.2204 22.4177L7.75162 27.4798C4.40703 28.4741 1.78559 30.9148 0.610467 34.169C-0.564659 37.5136 -0.0222935 41.1293 2.05678 44.022C4.13585 46.9146 7.29965 48.5417 10.7346 48.5417C11.1866 48.5417 11.5482 48.5417 12.0002 48.4513C15.9775 47.9993 19.2317 45.5587 20.678 41.8525C22.4859 37.5136 23.9322 31.9995 25.0169 25.4911L41.2879 19.3443L42.5534 14.2822L25.7401 20.7002ZM16.7007 40.2254C15.7967 42.4853 13.808 43.9316 11.4578 44.2027C9.10753 44.4739 6.84767 43.4796 5.49176 41.5813C4.22624 39.8638 3.95506 37.6944 4.67821 35.7057C5.40137 33.717 6.93807 32.1803 9.01714 31.6379L20.4068 27.3894C19.4125 32.3611 18.147 36.7 16.7007 40.2254Z" fill="white"/>
<path d="M27.0052 4.06774L27.2763 0L11.1862 9.85298L16.1578 11.7513L22.4854 7.86431C22.2143 10.8473 21.9431 13.6495 21.6719 16.271L26.1012 14.5535C26.4628 11.3897 26.8244 7.86431 27.0052 4.06774Z" fill="#FFAD40"/>
<path d="M27.3676 47.3671L23.2095 47.5478L28.0004 28.0227L32.7009 26.3052L27.3676 47.3671Z" fill="#FFAD40"/>
<path d="M34.7784 47.3667H30.3491L36.3151 24.9489L40.5637 23.3218L34.7784 47.3667Z" fill="#FFAD40"/>
<path d="M46.803 12.9267L38.3963 47.367H42.8256L51.6843 10.8477L46.803 12.9267Z" fill="#FFAD40"/>
<path d="M60.2698 48.4512H56.9252L56.7444 34.7112C56.654 34.9824 56.5636 35.4344 56.4732 36.0671C56.3828 36.6095 56.2924 37.0615 56.202 37.423L53.8518 48.5415H50.688L54.2134 32.1802H59.1851L59.4562 45.1066L65.1511 32.1802H70.0324L66.507 48.5415H63.3432L65.6934 37.423C65.7838 37.0615 65.8742 36.6999 65.9646 36.0671C66.055 35.5248 66.1454 35.0728 66.2358 34.7112L60.2698 48.4512Z" fill="white"/>
<path d="M82.8677 45.5586L82.2349 48.5416H69.8509L73.2859 32.0898H85.3084L84.6756 34.9825H75.9977L75.2746 38.5078H83.2293L82.6869 41.3101H74.7322L73.8283 45.5586H82.8677Z" fill="white"/>
<path d="M100.225 34.5305C100.586 35.344 100.857 36.248 100.857 37.1519C100.857 38.1463 100.767 39.0502 100.586 39.8638C100.134 42.0332 99.3207 43.9315 98.0552 45.3778C96.4281 47.4569 94.349 48.4512 91.9084 48.4512H84.8576L88.383 32.0898H95.4337C96.4281 32.0898 97.2416 32.1802 97.8744 32.4514C98.9591 32.813 99.7727 33.5362 100.225 34.5305ZM97.0608 40.1349C97.4224 38.5078 97.4224 37.1519 97.0608 36.248C96.6993 35.344 95.7953 34.8921 94.2586 34.8921H91.0948L88.8349 45.5586H91.9988C93.6258 45.5586 94.8914 44.745 95.8857 43.2083C96.4281 42.3948 96.7897 41.3101 97.0608 40.1349Z" fill="white"/>
<path d="M101.128 48.4512L104.654 32.0898H108.089L104.563 48.4512H101.128Z" fill="white"/>
<path d="M119.75 32.0898L122.1 48.4512H118.394L118.033 45.1066H111.976L110.168 48.4512H106.552L115.863 32.0898H119.75ZM116.948 35.8864L113.422 42.3044H117.581L116.948 35.8864Z" fill="white"/>
</svg>
