<svg width="27" height="50" viewBox="0 0 27 50" fill="none" xmlns="http://www.w3.org/2000/svg">
<path d="M16.3706 43.0534V48.3653C16.3706 48.8181 16.0036 49.1851 15.5508 49.1851H11.698C11.2453 49.1851 10.8783 48.8181 10.8783 48.3653V43.3321C6.77949 43.0943 3.50049 42.0533 0.565778 39.6104C0.222694 39.3131 0.0182539 38.8868 0.00116359 38.4331C-0.0159267 37.9795 0.155863 37.539 0.475606 37.2167L2.87748 34.7575C3.44557 34.1546 4.37413 34.0702 5.04162 34.5607C7.24675 36.2002 10.0093 36.8068 12.9522 36.8068C17.2313 36.8068 19.5102 35.1673 19.5102 32.1589C19.5862 30.9877 19.1703 29.8379 18.3626 28.9864C17.4452 28.1967 16.2923 27.7326 15.0836 27.6666L10.6323 27.0518C7.45169 26.5763 5.1072 25.5762 3.43491 23.9367C1.66425 22.1415 0.778914 19.715 0.778914 16.559C0.778914 10.6568 4.55797 6.32028 10.8783 5.34478V0.819752C10.8783 0.367015 11.2453 0 11.698 0H15.5508C16.0036 0 16.3706 0.367015 16.3706 0.819752V5.2792C19.2406 5.50007 21.9866 6.54155 24.2812 8.27949C24.6593 8.56272 24.8969 8.99531 24.933 9.46637C24.9691 9.93744 24.8003 10.4012 24.4697 10.7387L22.1908 13.034C21.6369 13.6125 20.7461 13.7061 20.0841 13.2554C18.1368 11.9978 15.8402 11.3921 13.526 11.5257C9.66502 11.5257 7.78779 13.6899 7.78779 16.2803C7.76467 17.2926 8.16242 18.2692 8.88626 18.9772C9.85844 19.8057 11.0588 20.3202 12.3292 20.4528L16.7067 21.084C20.1005 21.5595 22.2318 22.5104 23.7975 23.9859C25.7813 25.8878 26.6667 28.6339 26.6667 31.9621C26.6421 38.1184 22.3548 41.9795 16.3706 43.0534Z" fill="#FFAD40"/>
</svg>
