<svg width="48" height="54" viewBox="0 0 48 54" fill="none" xmlns="http://www.w3.org/2000/svg">
<path d="M18.6172 31.8931H43.9331" stroke="#0D1016" stroke-width="2.20312" stroke-linecap="round" stroke-linejoin="round"/>
<path d="M8.99861 41.4338H5.63721C3.79908 41.4338 2.30908 42.9238 2.30908 44.762V48.1234C2.30908 49.9614 3.79908 51.4515 5.63721 51.4515H8.99861C10.8367 51.4515 12.3267 49.9614 12.3267 48.1234V44.762C12.3267 42.9238 10.8367 41.4338 8.99861 41.4338Z" stroke="#0D1016" stroke-width="2.20312" stroke-linecap="round" stroke-linejoin="round"/>
<path d="M9.20266 25.6683H5.43322C3.372 25.6683 1.70117 27.3393 1.70117 29.4004V33.1698C1.70117 35.231 3.372 36.9019 5.43322 36.9019H9.20266C11.2638 36.9019 12.9347 35.231 12.9347 33.1698V29.4004C12.9347 27.3393 11.2638 25.6683 9.20266 25.6683Z" stroke="#FFAB3E" stroke-width="2.2" stroke-miterlimit="10"/>
<path d="M18.6172 46.4482H43.9331" stroke="#0D1016" stroke-width="2.20312" stroke-linecap="round" stroke-linejoin="round"/>
<path d="M26.9817 13.6328C22.9102 10.1161 19.9038 5.44566 14.8784 5.17941C12.0495 5.02409 8.88774 6.86566 8.18884 9.71675C7.25696 13.5219 10.6295 16.3175 14.1129 16.728C17.7627 17.1607 21.4126 13.8436 23.7645 11.4585C26.4048 8.77378 29.2559 6.02253 33.2163 5.76738C36.0009 5.58988 39.0517 7.05425 39.9392 9.70566C40.5493 11.5472 39.9946 13.6883 38.6412 15.075C36.3559 17.4158 31.9406 17.9705 29.4888 15.8405" stroke="#0D1016" stroke-width="2.20312" stroke-linecap="round" stroke-linejoin="round"/>
</svg>
